<?xml version="1.0" encoding="UTF-8" standalone="no"?>
<svg
   xmlns:osb="http://www.openswatchbook.org/uri/2009/osb"
   xmlns:dc="http://purl.org/dc/elements/1.1/"
   xmlns:cc="http://creativecommons.org/ns#"
   xmlns:rdf="http://www.w3.org/1999/02/22-rdf-syntax-ns#"
   xmlns:svg="http://www.w3.org/2000/svg"
   xmlns="http://www.w3.org/2000/svg"
   xmlns:xlink="http://www.w3.org/1999/xlink"
   xmlns:sodipodi="http://sodipodi.sourceforge.net/DTD/sodipodi-0.dtd"
   xmlns:inkscape="http://www.inkscape.org/namespaces/inkscape"
   width="210mm"
   height="297mm"
   viewBox="0 0 210 297"
   version="1.1"
   id="svg8"
   inkscape:version="1.0.1 (3bc2e813f5, 2020-09-07)"
   sodipodi:docname="dessin.svg"
   inkscape:export-filename="C:\Users\noe.studer\Desktop\dessin.png"
   inkscape:export-xdpi="96"
   inkscape:export-ydpi="96">
  <defs
     id="defs2">
    <linearGradient
       id="linearGradient2913"
       osb:paint="solid">
      <stop
         style="stop-color:#0b1dbf;stop-opacity:1;"
         offset="0"
         id="stop2911" />
    </linearGradient>
    <rect
       x="91.138908"
       y="172.92338"
       width="13.898015"
       height="12.027129"
       id="rect32" />
  </defs>
  <sodipodi:namedview
     id="base"
     pagecolor="#ffffff"
     bordercolor="#666666"
     borderopacity="1.0"
     inkscape:pageopacity="0.0"
     inkscape:pageshadow="2"
     inkscape:zoom="2.8"
     inkscape:cx="546.46778"
     inkscape:cy="226.42711"
     inkscape:document-units="mm"
     inkscape:current-layer="layer1"
     inkscape:document-rotation="0"
     showgrid="false"
     showguides="false"
     inkscape:window-width="1920"
     inkscape:window-height="1001"
     inkscape:window-x="-9"
     inkscape:window-y="-9"
     inkscape:window-maximized="1"
     inkscape:snap-text-baseline="true" />
  <metadata
     id="metadata5">
    <rdf:RDF>
      <cc:Work
         rdf:about="">
        <dc:format>image/svg+xml</dc:format>
        <dc:type
           rdf:resource="http://purl.org/dc/dcmitype/StillImage" />
        <dc:title />
      </cc:Work>
    </rdf:RDF>
  </metadata>
  <g
     inkscape:label="Calque 1"
     inkscape:groupmode="layer"
     id="layer1">
    <path
       style="fill:#0b1dbf;fill-opacity:1;stroke:none;stroke-width:0.0668172"
       d="m 118.22233,126.55173 c -1.67492,-0.18003 -2.70614,1.39454 -3.34936,2.69922 -1.77329,3.57086 -3.7296,7.07972 -5.0782,10.84029 -1.14922,3.63912 -0.29461,7.56845 -1.15326,11.23569 -0.40703,0.76105 -0.77606,1.55079 -0.80715,2.43652 -0.87371,4.0616 -2.48894,7.9542 -4.41841,11.62334 -1.71605,2.90518 -3.481542,5.80121 -5.540249,8.47827 -3.93264,4.62014 -8.33725,8.83405 -12.91481,12.80645 -2.850129,2.38049 -6.156727,4.14385 -8.949403,6.60458 -3.708262,3.07231 -7.964827,5.35098 -12.121992,7.73672 -1.916982,1.01638 -3.426208,2.70132 -5.435396,3.54022 -1.557494,0.50106 -2.798847,1.66448 -4.291319,2.32599 -5.872471,3.07291 -11.810991,6.05977 -17.956332,8.54626 -2.929255,1.13117 -5.982532,1.96357 -8.868877,3.18532 -0.606866,1.03806 0.389389,2.26619 1.363458,2.64726 2.085012,1.02721 4.484398,0.84931 6.684537,0.34826 3.572706,-0.72589 6.875337,-2.38535 10.435851,-3.14798 5.424523,-2.06151 10.581028,-4.76086 15.800053,-7.28303 2.792898,-1.33203 5.454428,-2.90521 8.106112,-4.49115 6.830671,-3.82017 13.374954,-8.12998 19.949064,-12.36972 6.301911,-3.99576 12.213893,-8.69344 17.144703,-14.31552 2.63492,-3.1424 4.44216,-6.8988 5.9073,-10.70285 1.90341,-6.3582 3.34578,-12.84896 4.40241,-19.39891 0.40702,-2.54492 1.09155,-5.03568 2.18516,-7.37135 0.8944,-2.39682 1.37049,-4.92751 2.42018,-7.26927 0.81285,-2.29008 1.93961,-4.61879 1.84152,-7.10193 0.0294,-0.94286 -0.89803,-1.37171 -1.70915,-1.36647 -1.21055,-0.12777 -2.42869,-0.22261 -3.64644,-0.23658 z"
       id="path48"
       inkscape:export-xdpi="96"
       inkscape:export-ydpi="96" />
    <path
       style="fill:#0b1dbf;fill-opacity:1;stroke-width:0.0668172"
       d="m 136.55863,131.20914 c -2.08882,0.26377 -3.17033,2.59167 -3.15547,4.50396 0.0955,4.69445 1.54469,9.25004 1.62076,13.9489 0.0586,3.7901 0.1366,7.60997 -0.30344,11.37604 -0.71192,3.67871 -1.56419,7.37676 -2.80943,10.91129 -1.40719,2.94379 -3.70655,5.36146 -5.90435,7.73126 -1.60026,1.77092 -3.55141,3.13578 -5.39448,4.6269 -2.41622,2.1519 -4.27324,4.83202 -6.41152,7.24434 -0.55249,0.70823 -1.17979,1.3971 -1.53715,2.22204 1.46883,2.72829 3.77108,4.88568 5.74308,7.24295 0.63406,0.54369 0.99643,1.67184 2.0051,1.43547 5.44875,0.31297 10.94544,0.044 16.36275,0.71633 1.41703,0.16317 2.62224,1.05696 4.06789,1.10463 2.41668,0.5143 4.71408,1.59533 6.60021,3.19595 1.07311,0.18954 2.31114,0.252 3.31395,-0.25126 1.03292,-0.74309 0.30784,-2.16774 -0.16088,-3.0349 -1.5129,-2.66726 -4.01346,-4.56434 -6.56743,-6.15468 -1.19728,-1.04863 -2.55104,-1.89494 -4.05777,-2.43194 -2.56379,-1.02902 -5.24134,-1.96687 -8.04682,-1.85041 -4.28037,0.037 -8.6783,-0.33945 -12.81879,1.00177 -1.0943,0.22112 -2.51311,0.76634 -3.47468,-0.0661 -0.6142,-0.72369 -0.20792,-1.77783 0.54587,-2.22632 1.89716,-1.35701 4.08901,-2.24258 6.0333,-3.53405 3.07516,-1.90566 6.20641,-3.77959 8.93089,-6.17319 3.91941,-2.11556 7.00304,-5.4448 9.80732,-8.84336 1.30674,-1.58483 2.45544,-3.35349 2.96555,-5.35672 0.79229,-1.71742 1.78519,-3.38906 1.98928,-5.3128 0.69504,-4.43538 -0.34678,-8.89465 -1.74409,-13.08782 -1.34416,-4.35451 -2.90475,-8.66392 -3.91238,-13.10685 -0.2689,-1.80025 -0.23732,-3.97583 -1.88892,-5.156 -0.51063,-0.39675 -1.13889,-0.69795 -1.79863,-0.67224 z"
       id="path873"
       inkscape:export-xdpi="96"
       inkscape:export-ydpi="96" />
    <path
       style="fill:#0b1dbf;fill-opacity:1;stroke-width:0.133635"
       d="m 149.18829,212.19503 c -2.03836,0.23804 -4.6373,0.50253 -5.91045,2.30116 -1.24332,5.55103 -1.71465,11.27929 -3.72662,16.64762 -0.79663,3.08624 -2.89098,5.6295 -3.95564,8.57968 -1.88058,3.36023 -4.73301,6.22791 -6.99488,9.38324 -2.32805,3.32139 -5.38931,6.32559 -6.78724,10.19312 -0.35266,1.22504 1.21527,2.03768 2.14813,1.21337 4.49996,-2.20135 7.71723,-6.26805 11.21058,-9.73188 4.29331,-4.86761 8.93172,-9.63943 11.90202,-15.46907 0.96943,-2.89612 2.53951,-5.61334 2.95234,-8.67984 1.62287,-3.98318 1.78819,-8.47216 1.26677,-12.70409 -0.0858,-1.15202 -0.92954,-1.92009 -2.10501,-1.73331 z"
       id="path875"
       inkscape:export-xdpi="96"
       inkscape:export-ydpi="96" />
    <path
       style="fill:#0b1dbf;fill-opacity:1;stroke-width:0.133635"
       d="m 150.9073,255.47308 c -3.58159,0.66122 -6.75568,2.77952 -10.42649,3.17205 -2.25153,0.54516 -4.46337,1.60236 -6.81704,0.91532 -2.39498,-0.38133 -3.26111,2.4791 -3.33261,4.34914 0.022,1.64198 -0.25275,4.08499 1.54801,4.90833 6.9228,-1.51643 13.95118,-4.28964 18.94471,-9.48239 0.92596,-0.88764 2.01508,-3.11872 0.42393,-3.85393 -0.11313,-0.0146 -0.227,-0.0146 -0.3409,-0.004 z"
       id="path877"
       inkscape:export-xdpi="96"
       inkscape:export-ydpi="96" />
    <path
       style="fill:#0b1dbf;fill-opacity:1;stroke-width:0.133635"
       d="m 175.52933,92.429608 c -1.0739,0.998456 -0.62744,2.883043 -1.44543,4.103682 -3.41521,7.49073 -7.99497,14.46011 -13.29898,20.74855 -3.83884,4.38514 -8.18894,8.33527 -13.07444,11.5241 -1.0181,1.25942 -0.66862,3.21557 -0.30199,4.68108 0.97774,1.5514 3.03108,-0.004 4.34805,-0.11543 8.85041,-2.56042 16.53078,-8.80855 20.73053,-17.02601 1.38089,-2.20268 2.69121,-4.5186 2.88425,-7.16418 1.49004,-5.09927 1.19953,-10.471705 0.89111,-15.708736 -0.0368,-0.418067 -0.20426,-1.057007 -0.73325,-1.042233 z"
       id="path879"
       inkscape:export-xdpi="96"
       inkscape:export-ydpi="96" />
    <path
       style="mix-blend-mode:lighten;fill:#0b1dbf;fill-opacity:1;stroke-width:0.033;stroke-miterlimit:4;stroke-dasharray:none"
       d="m 17.983641,221.70853 c -1.844837,0.12924 -3.525833,1.08346 -4.990021,2.15379 -1.368234,1.00139 -2.393583,2.50959 -2.591295,4.21624 -0.173382,1.47498 -0.184409,2.98249 -0.7141313,4.39137 -0.9172724,2.60453 -2.48226,4.9571 -3.1621546,7.6545 -0.1888172,0.83103 -0.5164951,1.71971 -0.3004925,2.57262 0.2622862,0.36809 0.7835597,0.0369 1.1022,-0.0661 1.2686828,-0.60909 2.6022436,-1.25951 3.5137824,-2.36581 0.29976,-0.59585 0.581885,-1.2038 1.009629,-1.72459 1.054519,-1.50776 2.470069,-2.74748 3.383891,-4.35303 0.753951,-1.37302 0.527516,-3.00463 0.645067,-4.50616 0.04408,-1.13401 0.03674,-2.41201 0.908458,-3.26831 0.847552,-0.99433 2.014921,-1.78967 2.515547,-3.03601 0.18441,-0.51502 0.125633,-1.1902 -0.415843,-1.46507 -0.269634,-0.16599 -0.593637,-0.20938 -0.904785,-0.20424 z"
       id="path881"
       inkscape:export-xdpi="96"
       inkscape:export-ydpi="96" />
    <path
       style="fill:#0b1dbf;fill-opacity:1;stroke-width:0.0236236"
       d="m 106.94595,124.20545 c -1.55418,0.044 -3.14383,0.18883 -4.60208,0.76198 -1.22562,0.63403 -2.2922,1.53616 -3.327899,2.4386 -3.113751,2.79069 -5.360841,6.38104 -7.308607,10.04279 -2.680633,4.97086 -5.931102,9.76809 -10.339314,13.36805 -2.743227,2.24122 -6.023083,3.96864 -9.583669,4.37698 -3.844986,0.51209 -7.727224,0.6796 -11.596384,0.93512 -1.409379,0.14391 -2.851453,0.2197 -4.204478,0.67005 -0.232168,0.0661 -0.609803,0.31151 -0.384249,0.58484 0.490045,0.45182 1.198884,0.53852 1.816916,0.71707 2.717367,0.63626 5.526575,0.76078 8.247543,1.34611 0.578943,0.0904 1.080229,0.40483 1.641177,0.55984 1.163253,0.14538 2.337085,-0.0735 3.492623,-0.20129 2.642138,-0.37616 5.31035,-0.57454 7.938601,-1.04688 1.780184,-0.33798 3.440974,-1.13821 4.907956,-2.18905 2.014919,-1.42591 3.952106,-2.96254 5.83059,-4.56316 1.709946,-1.51224 3.308291,-3.18258 4.494468,-5.14533 1.599814,-2.64317 3.19602,-5.31807 5.300798,-7.59978 1.536548,-1.65579 3.227998,-3.33185 5.418058,-4.0495 0.77306,-0.29536 1.72192,-0.4489 2.22673,-1.17414 0.53706,-0.91693 0.50695,-2.02573 0.72737,-3.03683 0.25565,-1.59017 0.74939,-3.13218 1.46888,-4.57099 0.19763,-0.52239 0.53634,-1.08582 0.38353,-1.66015 -0.23951,-0.41289 -0.8087,-0.42099 -1.22585,-0.50327 -0.43863,-0.0515 -0.88143,-0.0661 -1.32301,-0.0588 z"
       id="path883"
       inkscape:export-xdpi="96"
       inkscape:export-ydpi="96" />
    <path
       style="fill:#0b1dbf;fill-opacity:1;stroke-width:0.0668172"
       d="m 143.6341,92.509589 c -3.41776,0.22558 -6.37667,2.337986 -8.80273,4.603368 -3.46179,3.286563 -6.99034,6.919343 -8.3593,11.621003 -0.93053,2.21275 -2.36649,4.36684 -2.27158,6.87239 0.0586,0.72957 -0.094,2.04224 0.86549,2.23672 1.08273,-0.16154 1.59451,-1.37644 2.20461,-2.15252 1.81649,-2.91424 3.51496,-6.27743 6.81945,-7.75293 2.69068,-1.50071 5.90905,-1.53766 8.87849,-1.08788 2.75912,0.50255 5.20263,2.61384 5.99936,5.31211 0.51504,2.48301 -1.87084,4.48749 -1.75578,6.94161 0.29461,0.89958 1.58744,0.43127 1.96775,-0.18442 1.94201,-2.47732 3.17088,-5.41392 4.91558,-8.02419 1.20322,-2.36992 1.64788,-5.05488 1.96703,-7.67022 0.28139,-2.09256 -0.35707,-4.275696 -1.86558,-5.779209 -2.16839,-2.17633 -5.08155,-3.418649 -7.90927,-4.495065 -0.85608,-0.276243 -1.75028,-0.460659 -2.65353,-0.440815 z"
       id="path885"
       inkscape:export-xdpi="96"
       inkscape:export-ydpi="96" />
    <path
       style="fill:#d6e302;fill-opacity:1;stroke-width:0.0944946"
       d="m 171.55078,7.4894747 c -1.28587,0.407759 -1.63645,2.0191809 -2.32486,3.0317483 -1.58405,2.842411 -2.48081,6.004131 -3.89902,8.9051 -1.83602,1.467641 -4.30423,1.838369 -6.43126,2.752193 -3.36026,1.314455 -7.01909,2.414303 -9.69248,4.950788 -0.97393,0.69062 -1.08673,2.476827 0.32252,2.663662 4.31939,0.557637 8.76108,0.01465 13.04646,0.74271 1.0579,0.258615 0.64505,1.706345 -0.21308,1.96599 -4.25323,2.212259 -9.02381,3.205064 -13.41181,5.123075 -2.59762,1.226143 -5.44555,2.161565 -7.6683,4.029252 -0.57381,0.560578 -1.18587,1.953277 -0.0223,2.232463 4.55407,0.98362 9.27528,0.548088 13.90155,0.670786 5.31013,-0.119766 10.66918,0.159425 15.94119,-0.58556 0.98414,-0.07347 1.72169,-0.863494 1.67027,-1.860631 0.44082,-7.006779 0.14171,-14.041622 0.21599,-21.059273 -0.0941,-4.193533 0.11095,-8.422914 -0.26596,-12.5958026 -0.1572,-0.5040057 -0.58554,-1.0351187 -1.16949,-0.9665689 z"
       id="path899"
       inkscape:export-xdpi="96"
       inkscape:export-ydpi="96" />
    <path
       style="fill:#d6e302;fill-opacity:1;stroke-width:0.0944946"
       d="m 177.55652,7.4842596 c -1.48894,0.075669 -1.21931,1.8862712 -1.30443,2.9059684 -0.26892,10.701151 -0.37399,21.421993 0.1785,32.115135 -0.0515,0.873416 0.46509,1.785769 1.45993,1.684159 4.8104,0.410698 9.6612,0.127843 14.48656,0.201307 4.93265,-0.135181 9.91989,0.187351 14.81115,-0.561311 0.73749,-0.0294 1.20667,-0.946591 0.53927,-1.423485 -2.67144,-2.053638 -6.01113,-2.99817 -9.05952,-4.350316 -3.27445,-1.484611 -7.07783,-2.363683 -9.63879,-5.026755 -0.72294,-0.566456 -1.10986,-1.957982 0.004,-2.290655 2.74338,-0.733233 5.66939,-0.406291 8.4648,-0.904273 0.6906,-0.209389 2.08976,-0.161636 2.18648,-1.110939 -0.83192,-1.972016 -2.65266,-3.419303 -4.4501,-4.503577 -1.46052,-0.583353 -2.53738,-1.766372 -4.07283,-2.222694 -2.03767,-0.945046 -4.73697,-1.241646 -6.04168,-3.246571 -0.83065,-2.091404 -1.25502,-4.392857 -2.77951,-6.150926 -1.37926,-1.588056 -2.50906,-3.396676 -3.93197,-4.9299968 -0.25422,-0.1557523 -0.56134,-0.2093905 -0.85549,-0.1844106 z"
       id="path901"
       inkscape:export-xdpi="96"
       inkscape:export-ydpi="96" />
    <path
       style="fill:#d6e302;fill-opacity:1;stroke-width:0.0944946"
       d="m 182.95461,47.575984 c -2.31078,0.138137 -4.8574,-0.362945 -6.93896,0.884285 0.0904,12.713942 -0.0874,25.434572 0.27623,38.14366 0.0221,0.56646 -0.0368,1.954097 0.91833,1.492985 2.26903,-1.65411 3.68415,-4.225128 5.13357,-6.574984 0.96951,-2.114697 1.47917,-4.683283 3.5412,-6.079876 4.80102,-3.198536 10.51026,-4.907522 15.09261,-8.462671 0.6164,-0.544413 1.61619,-1.78033 0.55027,-2.404532 -1.8992,-0.785688 -4.08141,-0.412167 -6.08986,-0.623762 -2.52032,-0.229962 -5.21434,0.160165 -7.60826,-0.789952 -0.95601,-0.671517 -0.77063,-2.314163 -0.044,-3.091184 2.61508,-1.941816 5.87065,-2.768133 8.80848,-4.104337 3.65551,-1.611788 7.59729,-2.775484 10.88897,-5.093982 0.61051,-0.542208 1.81433,-1.691797 0.93348,-2.496002 -2.1204,-0.66564 -4.4533,-0.423921 -6.65858,-0.610537 -6.26615,-0.195432 -12.53644,-0.185883 -18.80498,-0.189555 z"
       id="path903"
       inkscape:export-xdpi="96"
       inkscape:export-ydpi="96" />
    <path
       style="fill:#d6e302;fill-opacity:1;stroke:#000000;stroke-width:0.0167856;stroke-miterlimit:4;stroke-dasharray:none;stroke-opacity:0"
       d="m 150.0531,47.375115 c -2.26272,0.05878 -4.54198,-0.08008 -6.79355,0.177067 -0.59657,0.06614 -1.51144,0.30637 -1.4008,1.088019 0.22043,1.425984 1.52884,2.32695 2.57485,3.170019 3.28611,2.339214 6.93676,4.112861 10.58809,5.800615 1.09522,0.520904 2.27639,0.812435 3.47285,0.955334 1.55087,0.322535 3.11372,1.372718 3.58682,2.947038 0.22773,0.741678 -0.17555,1.712219 -1.04321,1.768205 -3.92534,0.768351 -7.98194,0.332086 -11.92037,1.009262 -0.52825,0.06614 -1.3512,0.440083 -1.06195,1.104622 0.62012,1.051652 1.7913,1.626408 2.7226,2.366547 3.99132,2.766375 8.3119,5.010218 12.6937,7.084647 1.36561,0.673723 2.81108,1.556404 3.31663,3.074951 0.45035,1.026394 0.74115,2.114551 0.88617,3.224304 0.7244,2.175393 1.78549,4.257754 3.13631,6.111319 0.23217,0.23145 0.65388,0.891067 1.00537,0.473159 0.60907,-1.14767 0.55984,-2.521128 0.73682,-3.781294 0.63332,-7.504456 0.47756,-15.043962 0.53633,-22.567087 -0.044,-4.093173 0.0889,-8.206181 -0.36369,-12.280908 -0.004,-0.632578 -0.53851,-1.053419 -1.13356,-1.110577 -2.951,-0.486374 -5.96201,-0.394535 -8.94242,-0.514291 -4.19829,-0.08449 -8.39763,-0.105798 -12.59667,-0.100661 z"
       id="path907"
       inkscape:export-xdpi="96"
       inkscape:export-ydpi="96" />
    <g
       id="g862"
       inkscape:export-xdpi="96"
       inkscape:export-ydpi="96">
      <text
         xml:space="preserve"
         style="font-style:normal;font-variant:normal;font-weight:normal;font-stretch:normal;font-size:10.5833px;line-height:1.25;font-family:'Century Gothic';-inkscape-font-specification:'Century Gothic';fill:#0b1dbf;fill-opacity:1;stroke:none;stroke-width:0;stroke-miterlimit:4.2;stroke-dasharray:none;opacity:0.83934426"
         id="text21"
         transform="translate(5.3453905,-0.26726957)"><textPath
           xlink:href="#path23"
           id="textPath27"
           style="stroke:#000000;stroke-opacity:1;stroke-width:0;stroke-miterlimit:4.2;stroke-dasharray:none">Fémina Vicques</textPath></text>
    </g>
    <path
       style="fill:none;stroke:#000300;stroke-width:0.264583px;stroke-linecap:butt;stroke-linejoin:miter;stroke-opacity:1;opacity:0"
       d="m 17.027246,210.53845 c 10.100496,-3.37046 70.327416,-32.58572 80.35439,-56.8225"
       id="path23"
       sodipodi:nodetypes="cc"
       inkscape:export-xdpi="96"
       inkscape:export-ydpi="96" />
    <text
       xml:space="preserve"
       id="text30"
       style="fill:black;fill-opacity:1;line-height:1.25;stroke:none;font-family:sans-serif;font-style:normal;font-weight:normal;font-size:10.58333333px;white-space:pre;shape-inside:url(#rect32);" />
  </g>
</svg>
